<?xml version="1.0" encoding="UTF-8" standalone="no"?>
<!-- Created with Inkscape (http://www.inkscape.org/) -->

<svg
   xmlns:dc="http://purl.org/dc/elements/1.1/"
   xmlns:cc="http://creativecommons.org/ns#"
   xmlns:rdf="http://www.w3.org/1999/02/22-rdf-syntax-ns#"
   xmlns:svg="http://www.w3.org/2000/svg"
   xmlns="http://www.w3.org/2000/svg"
   xmlns:sodipodi="http://sodipodi.sourceforge.net/DTD/sodipodi-0.dtd"
   xmlns:inkscape="http://www.inkscape.org/namespaces/inkscape"
   width="744.09448819"
   height="1052.3622047"
   id="svg2"
   version="1.1"
   inkscape:version="0.48.5 r10040"
   sodipodi:docname="New document 1">
  <defs
     id="defs4">
    <inkscape:path-effect
       effect="spiro"
       id="path-effect2997"
       is_visible="true" />
  </defs>
  <sodipodi:namedview
     id="base"
     pagecolor="#ffffff"
     bordercolor="#666666"
     borderopacity="1.0"
     inkscape:pageopacity="0.0"
     inkscape:pageshadow="2"
     inkscape:zoom="0.35"
     inkscape:cx="375"
     inkscape:cy="520"
     inkscape:document-units="px"
     inkscape:current-layer="layer1"
     showgrid="false"
     inkscape:window-width="1366"
     inkscape:window-height="745"
     inkscape:window-x="-8"
     inkscape:window-y="-8"
     inkscape:window-maximized="1" />
  <metadata
     id="metadata7">
    <rdf:RDF>
      <cc:Work
         rdf:about="">
        <dc:format>image/svg+xml</dc:format>
        <dc:type
           rdf:resource="http://purl.org/dc/dcmitype/StillImage" />
        <dc:title></dc:title>
      </cc:Work>
    </rdf:RDF>
  </metadata>
  <g
     inkscape:label="Layer 1"
     inkscape:groupmode="layer"
     id="layer1">
    <path
       style="fill:#ff0000;stroke:#000000;stroke-width:1px;stroke-linecap:butt;stroke-linejoin:miter;stroke-opacity:1"
       d="m 425.71429,226.6479 c -1.90477,3.80952 -4.13247,7.47402 -5.71429,11.42857 -2.8493,7.12326 8.73249,-2.26365 -5.71429,8.57143 -1.70367,1.27775 -4.20843,1.35129 -5.71428,2.85714 -1.50585,1.50585 -1.08522,4.533 -2.85714,5.71429 -1.58486,1.05657 -4.01062,-0.85184 -5.71429,0 -0.85184,0.42591 0.85184,2.43122 0,2.85714 -1.70367,0.85183 -3.90727,-0.60234 -5.71429,0 -1.27775,0.42592 -1.65246,2.2548 -2.85714,2.85714 -0.85183,0.42592 -2.00531,-0.42592 -2.85714,0 -1.20468,0.60234 -1.65247,2.25481 -2.85714,2.85714 -7.03701,3.51851 2.57924,-8.29352 -8.57143,2.85715 -0.67344,0.67343 0.85183,2.43122 0,2.85714 -1.70367,0.85184 -3.90727,-0.60234 -5.71429,0 -1.27775,0.42592 -1.65246,2.2548 -2.85714,2.85714 -0.85184,0.42592 -1.90476,0 -2.85714,0 -0.95239,0.95238 -1.65247,2.25481 -2.85715,2.85715 -0.85183,0.42591 -2.0053,-0.42592 -2.85714,0 -11.89074,5.94537 3.05439,-0.19725 -2.85714,5.71428 -1.34687,1.34687 -4.36742,-1.34687 -5.71429,0 -0.67343,0.67344 0,1.90476 0,2.85714 -0.95238,0 -2.00531,-0.42591 -2.85714,0 -1.20468,0.60234 -1.90476,1.90477 -2.85714,2.85715 -0.95239,0.95238 -2.25481,1.65246 -2.85715,2.85714 -0.42591,0.85184 0.42592,2.00531 0,2.85714 -5.94537,11.89075 0.19725,-3.05438 -5.71428,2.85715 -1.34687,1.34687 1.34687,4.36741 0,5.71428 -0.67344,0.67344 -2.18371,-0.67343 -2.85715,0 -0.67343,0.67344 0.67344,2.18371 0,2.85714 -0.67343,0.67344 -2.1837,-0.67343 -2.85714,0 -0.67343,0.67344 0.67344,2.18371 0,2.85715 -0.67343,0.67343 -2.18371,-0.67344 -2.85714,0 -0.67344,0.67343 0.42592,2.0053 0,2.85714 -0.60234,1.20468 -1.90476,1.90476 -2.85714,2.85714 -0.95239,0.95238 -1.65247,2.25481 -2.85715,2.85715 -0.85183,0.42591 -2.0053,-0.42592 -2.85714,0 -1.52595,0.76297 -7.06724,7.06724 -8.57143,8.57142 -0.95238,0.95238 -1.90476,1.90477 -2.85714,2.85715 -0.95238,0.95238 -2.25481,1.65246 -2.85714,2.85714 -0.42592,0.85184 0.42591,2.00531 0,2.85714 -0.60234,1.20468 -2.25481,1.65247 -2.85715,2.85715 -0.42591,0.85183 0.67344,2.1837 0,2.85714 -0.67343,0.67343 -2.1837,-0.67344 -2.85714,0 -1.50585,1.50584 -1.67586,3.94236 -2.85714,5.71428 -1.49422,2.24133 -4.50961,3.30494 -5.71429,5.71429 -0.42592,0.85184 0.67344,2.18371 0,2.85714 -0.67343,0.67344 -2.18371,-0.67343 -2.85714,0 -1.50585,1.50585 -1.3513,4.20844 -2.85714,5.71429 -0.67344,0.67343 -2.18371,-0.67344 -2.85715,0 -0.67343,0.67343 0.42592,2.00531 0,2.85714 -9.47595,9.47595 1.34687,-2.69374 -2.85714,5.71429 -1.20468,2.40935 -4.50961,3.30493 -5.71429,5.71428 -0.42591,0.85184 0.42592,2.00531 0,2.85715 -0.60233,1.20467 -2.2548,1.65246 -2.85714,2.85714 -0.85183,1.70367 1.34687,4.36741 0,5.71428 -0.67343,0.67344 -2.18371,-0.67343 -2.85714,0 -0.67344,0.67344 0.42592,2.00531 0,2.85715 -0.60234,1.20467 -2.25481,1.65246 -2.85714,2.85714 -0.56642,1.13283 0.5841,7.98732 0,8.57143 -0.67344,0.67343 -2.18371,-0.67344 -2.85715,0 -1.42857,1.42857 1.42857,7.14286 0,8.57143 -0.67343,0.67343 -2.1837,-0.67344 -2.85714,0 -1.34687,1.34687 0.60234,3.90727 0,5.71428 -0.67344,2.02031 -2.18371,3.69398 -2.85714,5.71429 -0.65508,1.96523 0.84288,6.88565 0,8.57143 -0.60234,1.20467 -2.25481,1.65246 -2.85715,2.85714 -1.14285,2.28571 1.14286,6.28571 0,8.57143 -0.60233,1.20468 -2.2548,1.65246 -2.85714,2.85714 -0.42592,0.85184 0.30117,1.95364 0,2.85714 -0.67343,2.02031 -2.18371,3.69398 -2.85714,5.71429 -0.60234,1.80702 1.34687,4.36742 0,5.71429 -0.67344,0.67343 -2.43123,-0.85184 -2.85714,0 -0.85184,1.70367 0.46197,3.86639 0,5.71428 -0.51651,2.06601 -2.18371,3.69398 -2.85715,5.71429 -0.30117,0.9035 0.42592,2.0053 0,2.85714 -0.60234,1.20468 -2.43122,1.57939 -2.85714,2.85714 -0.60234,1.80702 0.60234,3.90727 0,5.71429 -0.42592,1.27775 -2.11003,1.73648 -2.85714,2.85714 -8.31913,12.4787 1.2663,-0.94176 -2.85715,11.42857 -0.42591,1.27776 -2.43122,1.57939 -2.85714,2.85715 -0.60234,1.80701 0.46197,3.86639 0,5.71428 -0.5165,2.06601 -2.34064,3.64828 -2.85714,5.71429 -0.46197,1.84789 0.60234,3.90727 0,5.71428 -0.42592,1.27776 -2.593,1.53643 -2.85714,2.85715 -0.74711,3.73554 0.53874,7.65733 0,11.42857 0.99234,5.81325 -4.70846,9.25658 -5.71429,14.28571 -0.56033,2.80166 0.46971,5.75316 0,8.57143 -1.79538,10.77226 -3.63525,7.2705 -8.57143,17.14286 -1.34687,2.69374 -1.90476,5.71428 -2.85714,8.57143 -0.95238,2.85714 -2.36203,5.60071 -2.85714,8.57142 -0.78286,4.69712 1.15493,9.66599 0,14.28572 -0.51651,2.066 -2.34065,3.64828 -2.85715,5.71428 -0.46197,1.84789 0.60234,3.90727 0,5.71429 -0.42591,1.27775 -2.43122,1.57939 -2.85714,2.85714 -0.52503,1.57508 0,14.71816 0,17.14286 0,5.71429 0,11.42857 0,17.14286 0,2.85714 -0.90351,5.8609 0,8.57143 0.42592,1.27775 2.2548,1.65246 2.85714,2.85714 0.85184,1.70367 -1.05657,4.12943 0,5.71428 1.49422,2.24133 4.22007,3.47296 5.71429,5.71429 0.52828,0.79243 -0.30117,1.95363 0,2.85714 0.67343,2.02031 2.18371,3.69398 2.85714,5.71429 0.30117,0.90351 -0.42592,2.00531 0,2.85714 0.60234,1.20468 2.43123,1.57939 2.85714,2.85714 1.20468,3.61404 -1.20467,7.81454 0,11.42858 0.42592,1.27775 1.90477,1.90476 2.85715,2.85714 0.95238,1.90476 2.34064,3.64828 2.85714,5.71428 0.46197,1.84789 0,3.80953 0,5.71429 0,4.7619 -0.78285,9.5886 0,14.28571 0.49512,2.97072 2.36202,5.60072 2.85714,8.57143 0.46971,2.81827 0,5.71429 0,8.57143 0,8.57143 0,17.14286 0,25.71429 0,3.80952 0,7.61904 0,11.42857 0,1.90476 0.70741,3.94576 0,5.71428 -1.2753,3.18826 -4.06997,5.55686 -5.71428,8.57143 -29.87543,59.75085 2.80407,-2.20079 -20,34.28572 -2.25736,3.61177 -3.35172,7.88472 -5.71429,11.42857 -1.49422,2.24133 -4.09804,3.55929 -5.71428,5.71428 -1.27776,1.70367 -1.90477,3.80953 -2.85715,5.71429 -1.90476,3.80952 -3.80952,7.61905 -5.71428,11.42857 -0.95238,1.90476 -1.57939,4.01062 -2.85715,5.71429 -5.6218,7.49573 -7.43319,4.29728 -11.42857,14.28571 -0.70741,1.76853 0.46198,3.8664 0,5.71429 -0.5165,2.066 -1.90476,3.80952 -2.85714,5.71428 -1.90476,3.80953 -3.80952,7.61905 -5.71429,11.42857 -0.95238,1.90477 -1.90476,3.80953 -2.85714,5.71429 -0.95238,1.90476 -2.34064,3.64828 -2.85714,5.71429 -0.46197,1.84789 0.60234,3.90727 0,5.71428 -0.42592,1.27775 -2.11004,1.73648 -2.85714,2.85714 -1.18129,1.77193 -1.67586,3.94236 -2.85715,5.71429 -0.74711,1.12066 -2.11003,1.73648 -2.85714,2.85714 -1.18128,1.77193 -1.67586,3.94236 -2.85714,5.71429 -0.74711,1.12066 -2.11004,1.73648 -2.85715,2.85714 -1.18128,1.77193 -1.35129,4.20844 -2.85714,5.71429 -0.67343,0.67343 -2.18371,-0.67344 -2.85714,0 -1.50585,1.50584 -1.3513,4.20844 -2.85714,5.71428 -1.50585,1.50585 -4.20844,1.3513 -5.71429,2.85715 -0.18308,0.18308 -5.35948,10.89636 -5.71429,11.42857 -0.95238,0.95238 -1.90476,1.90476 -2.85714,2.85714 -0.95238,0 -2.18371,-0.67344 -2.85714,0 -0.67344,0.67343 0.67343,2.18371 0,2.85714 -0.67344,0.67344 -2.85714,0.95238 -2.85714,0 0,-0.2097 8.04718,0.26213 8.57142,0 1.47584,-0.73792 13.31655,-13.31654 14.28572,-14.28571 0.95238,-0.95238 1.65246,-2.25481 2.85714,-2.85714 0.85184,-0.42592 2.18371,0.67343 2.85714,0 0.67344,-0.67344 -0.67343,-2.18371 0,-2.85715 0.67344,-0.67343 2.00531,0.42592 2.85715,0 2.40935,-1.20467 3.47296,-4.22006 5.71428,-5.71428 1.77193,-1.18129 3.94236,-1.67586 5.71429,-2.85715 1.12066,-0.74711 1.65246,-2.2548 2.85714,-2.85714 0.85184,-0.42592 2.18371,0.67344 2.85714,0 1.50585,-1.50585 1.3513,-4.20844 2.85715,-5.71428 0.67343,-0.67344 1.90476,0 2.85714,0 1.90476,-2.85715 4.17862,-5.5001 5.71429,-8.57143 0.42591,-0.85184 -0.67344,-2.18371 0,-2.85715 1.50584,-1.50584 3.94236,-1.67586 5.71428,-2.85714 2.6009,-1.73393 6.03904,-7.30523 8.57143,-8.57143 0.85184,-0.42592 2.06471,0.52829 2.85714,0 3.36199,-2.24132 5.71429,-5.71428 8.57143,-8.57143 1.82983,-1.82982 9.64607,-8.75481 11.42857,-11.42857 1.18129,-1.77192 1.3513,-4.20844 2.85715,-5.71428 0.67343,-0.67344 2.1837,0.67343 2.85714,0 0.67343,-0.67344 -0.30117,-1.95364 0,-2.85715 0.67343,-2.0203 2.18371,-3.69398 2.85714,-5.71428 0.30117,-0.90351 -0.42592,-2.00531 0,-2.85714 1.85775,-3.7155 3.85654,-1.99879 5.71429,-5.71429 0.42591,-0.85184 -0.67344,-2.18371 0,-2.85714 0.67343,-0.67344 2.1837,0.67343 2.85714,0 0.67344,-0.67344 -0.42592,-2.00531 0,-2.85715 6.53801,-13.07602 -1.18421,12.12405 5.71429,-8.57142 0.30117,-0.90351 0,-1.90477 0,-2.85715 0,-3.5185 -0.42592,-5.28837 2.85714,-8.57143 0.67343,-0.67343 2.18371,0.67344 2.85714,0 0.003,-0.003 -0.004,-8.55847 0,-8.57142 0.42592,-1.27776 2.11004,-1.73648 2.85714,-2.85715 1.18129,-1.77192 2.18371,-3.69398 2.85715,-5.71428 0.30117,-0.90351 0,-1.90477 0,-2.85715 0.95238,-0.95238 2.2548,-1.65246 2.85714,-2.85714 0.42592,-0.85183 -0.67344,-2.18371 0,-2.85714 0.67344,-0.67344 2.43123,0.85183 2.85714,0 0.85184,-1.70367 -0.85183,-4.01062 0,-5.71429 1.20468,-2.40935 4.50961,-3.30493 5.71429,-5.71428 0.85183,-1.70367 -0.46197,-3.8664 0,-5.71429 0.5165,-2.066 1.90476,-3.80952 2.85714,-5.71428 0.95238,-1.90477 1.57939,-4.01062 2.85714,-5.71429 1.61625,-2.15499 4.32837,-3.40442 5.71429,-5.71429 10.34774,-17.24623 -1.49937,-1.21616 2.85714,-14.28571 0.42592,-1.27775 2.25481,-1.65247 2.85715,-2.85714 0.42591,-0.85184 -0.42592,-2.00531 0,-2.85715 0.60233,-1.20467 2.2548,-1.65246 2.85714,-2.85714 0.42592,-0.85183 0,-1.90476 0,-2.85714 0,-1.90476 0,-3.80953 0,-5.71429 0,-3.80952 0,-7.61905 0,-11.42857 0,-1.90476 0,-3.80952 0,-5.71428 0,-0.95239 -0.67344,-2.18371 0,-2.85715 0.67343,-0.67343 2.43122,0.85184 2.85714,0 2.85714,-5.71428 -1.42857,-4.28571 0,-8.57143 0.67344,-2.0203 2.18371,-3.69398 2.85714,-5.71428 0.53734,-1.612 0,-6.69398 0,-8.57143 0,-5.71429 0,-11.42857 0,-17.14286 0,-1.90476 0,-3.80952 0,-5.71428 0,-0.95238 0.67344,-2.18371 0,-2.85715 -0.67343,-0.67343 -2.43122,0.85184 -2.85714,0 -0.85183,-1.70367 0,-3.80952 0,-5.71428 0,-3.80953 0,-7.61905 0,-11.42857 0,-1.90477 0.46197,-3.8664 0,-5.71429 -0.5165,-2.066 -2.34064,-3.64828 -2.85714,-5.71428 -0.46197,-1.8479 0,-3.80953 0,-5.71429 0,-0.95238 0.42592,-2.00531 0,-2.85714 -0.60234,-1.20468 -2.43123,-1.57939 -2.85714,-2.85715 -1.20468,-3.61403 0.92394,-7.73279 0,-11.42857 -0.51651,-2.066 -2.18371,-3.69398 -2.85715,-5.71428 -0.30117,-0.90351 0.67344,-2.18371 0,-2.85715 -0.67343,-0.67343 -2.43122,0.85184 -2.85714,0 -0.22351,-0.44702 0,-13.48693 0,-14.28571 0,-8.57143 0,-17.14286 0,-25.71429 0,-9.52381 0,-19.04762 0,-28.57142 0,-1.90477 0,-3.80953 0,-5.71429 0,-1.90476 -0.46197,-3.8664 0,-5.71429 0.5165,-2.066 2.50704,-3.61367 2.85714,-5.71428 0.62628,-3.75769 -0.53875,-7.65734 0,-11.42857 0.42592,-2.98143 2.36203,-5.60072 2.85715,-8.57143 0.16355,-0.98135 -0.52459,-15.56909 0,-17.14286 0.42591,-1.27775 2.2548,-1.65246 2.85714,-2.85714 0.42592,-0.85184 -0.30117,-1.95364 0,-2.85714 0.67343,-2.02031 2.18371,-3.69399 2.85714,-5.71429 0.30117,-0.90351 -0.30117,-1.95364 0,-2.85714 6.89849,-20.69548 -0.82372,4.50459 5.71429,-8.57143 0.85183,-1.70367 -0.85184,-4.01062 0,-5.71429 1.20467,-2.40935 5.06095,-3.10097 5.71428,-5.71428 0.69296,-2.77184 -0.69296,-5.7996 0,-8.57143 0.32667,-1.30666 2.25481,-1.65247 2.85715,-2.85714 0.42591,-0.85184 -0.42592,-2.00531 0,-2.85715 0.60233,-1.20467 1.90476,-1.90476 2.85714,-2.85714 0.95238,-0.95238 1.73648,-2.11003 2.85714,-2.85714 1.77193,-1.18129 4.20844,-1.3513 5.71429,-2.85715 1.50584,-1.50584 1.67586,-3.94236 2.85714,-5.71428 0.74711,-1.12067 2.11003,-1.73648 2.85714,-2.85714 2.36257,-3.54385 3.35172,-7.88473 5.71429,-11.42858 0.74711,-1.12066 2.43122,-1.57939 2.85714,-2.85714 0.60234,-1.80701 -1.05657,-4.12943 0,-5.71428 3.46972,-1.73486 6.38994,-2.44205 8.57143,-5.71429 1.18128,-1.77193 1.67586,-3.94236 2.85714,-5.71429 0.74711,-1.12066 2.11004,-1.73648 2.85715,-2.85714 1.18128,-1.77192 1.67586,-3.94236 2.85714,-5.71428 0.74711,-1.12067 1.90476,-1.90477 2.85714,-2.85715 6.72869,-6.72868 5.27509,-6.02219 14.28572,-11.42857 3.65221,-2.19133 7.88472,-3.35172 11.42857,-5.71428 2.24132,-1.49422 3.30493,-4.50961 5.71428,-5.71429 0.85184,-0.42592 2.00531,0.42592 2.85715,0 11.89074,-5.94537 -3.05439,0.19724 2.85714,-5.71429 5.91153,-5.91153 -0.23109,9.03361 5.71428,-2.85714 0.42592,-0.85183 -0.30117,-1.95363 0,-2.85714 3.45266,-10.35798 1.35562,-2.03342 5.71429,-8.57143 1.18128,-1.77193 1.67586,-3.94236 2.85714,-5.71429 1.78251,-2.67375 9.59875,-9.59874 11.42857,-11.42857 0.95239,-0.95238 2.25481,-1.65246 2.85715,-2.85714 0.42591,-0.85184 -0.67344,-2.18371 0,-2.85714 0.67343,-0.67344 2.1837,0.67343 2.85714,0 0.67344,-0.67344 -0.67344,-2.18371 0,-2.85715 0.67344,-0.67343 1.90476,0 2.85714,0 1.90476,-1.90476 4.22007,-3.47295 5.71429,-5.71428 0.52828,-0.79243 -0.67344,-2.18371 0,-2.85714 1.50585,-1.50585 3.94236,-1.67586 5.71428,-2.85715 1.12067,-0.74711 1.73648,-2.11003 2.85715,-2.85714 1.77192,-1.18128 4.20844,-1.3513 5.71428,-2.85714 5.91153,-5.91153 -9.0336,0.23108 2.85715,-5.71429 0.85183,-0.42592 2.0053,0.42592 2.85714,0 1.20468,-0.60234 1.90476,-1.90476 2.85714,-2.85714 0.95238,-0.95238 2.25481,-1.65247 2.85714,-2.85714 0.42592,-0.85184 -0.67343,-2.18371 0,-2.85715 0.67344,-0.67343 2.00531,0.42592 2.85715,0 2.40935,-1.20467 3.47296,-4.22006 5.71428,-5.71428 1.43884,-6.29476 5.87769,-1.51028 8.57143,-2.85715 2.40936,-1.20467 3.30493,-4.5096 5.71429,-5.71428 0.85183,-0.42592 2.0053,0.42592 2.85714,0 1.20468,-0.60234 1.65247,-2.25481 2.85714,-2.85714 0.85184,-0.42592 2.00531,0.42591 2.85715,0 1.20467,-0.60234 1.90476,-1.90477 2.85714,-2.85715 0,-0.95238 -0.85184,-2.43122 0,-2.85714 1.70367,-0.85184 4.01061,0.85184 5.71428,0 0.85184,-0.42592 -0.67343,-2.18371 0,-2.85714 0.67344,-0.67344 2.00531,0.42591 2.85715,0 9.47595,-9.47595 -2.69374,1.34687 5.71428,-2.85715 2.40936,-1.20467 3.30493,-4.5096 5.71429,-5.71428 0.85183,-0.42592 2.18371,0.67343 2.85714,0 0.67344,-0.67344 -0.67343,-2.18371 0,-2.85714 0.67344,-0.67344 2.18371,0.67343 2.85714,0 0.67344,-0.67344 -0.67343,-2.18371 0,-2.85715 0.67344,-0.67343 1.95364,0.30117 2.85715,0 2.0203,-0.67343 3.64828,-2.34064 5.71428,-2.85714 1.84789,-0.46197 4.01062,0.85184 5.71429,0 0.85183,-0.42592 -0.42592,-2.00531 0,-2.85714 0.60234,-1.20468 1.65246,-2.25481 2.85714,-2.85715 0.85184,-0.42591 1.95364,0.30117 2.85714,0 2.02031,-0.67343 3.69398,-2.1837 5.71429,-2.85714 0.90351,-0.30117 2.00531,0.42592 2.85714,0 1.20468,-0.60234 1.65247,-2.2548 2.85715,-2.85714 0.85183,-0.42592 2.0053,0.42592 2.85714,0 1.20468,-0.60234 1.65246,-2.25481 2.85714,-2.85714 0.85184,-0.42592 1.90476,0 2.85714,0 0.95239,-0.95239 1.65247,-2.25481 2.85715,-2.85715 0.85183,-0.42592 2.1837,0.67344 2.85714,0 0.67344,-0.67343 -0.67344,-2.18371 0,-2.85714 0.67344,-0.67344 1.90476,0 2.85714,0 0.95238,0 1.90476,0 2.85715,0 0.95238,0 2.85714,-0.95238 2.85714,0 0,0.95238 -3.53058,0.67343 -2.85714,0 1.50584,-1.50585 3.69398,-2.18371 5.71428,-2.85714 0.90351,-0.30117 1.90476,0 2.85714,0 0.95239,-0.95238 1.65247,-2.25481 2.85715,-2.85715 0.85183,-0.42591 2.1837,0.67344 2.85714,0 1.34687,-1.34687 -0.85184,-4.01061 0,-5.71428 1.20468,-2.40936 4.86245,-3.15878 5.71429,-5.71429 1.80701,-2.5639 -0.90351,-5.8609 0,-8.57143 0.67343,-2.0203 2.34064,-3.64828 2.85714,-5.71428 0.69296,-2.77184 -0.90351,-5.86091 0,-8.57143 0.67343,-2.02031 2.18371,-3.69398 2.85714,-5.71429 0.30117,-0.9035 -0.42592,-2.0053 0,-2.85714 0.60234,-1.20468 2.25481,-1.65246 2.85714,-2.85714 0.85184,-1.70367 -0.85183,-4.01062 0,-5.71429 0.60234,-1.20467 2.25481,-1.65246 2.85715,-2.85714 0.32018,-0.64037 0,-10.74963 0,-11.42857 0,-5.71429 0,-11.42857 0,-17.14286 -3.80952,-3.80952 -7.22166,-8.06304 -11.42857,-11.42857 -0.74369,-0.59495 -1.90477,0 -2.85715,0 -1.90476,0 -3.80952,0 -5.71428,0 -0.95238,0 2.85714,0.95238 2.85714,0 0,-0.95238 -1.90476,0 -2.85714,0 -3.80953,0 -7.61905,0 -11.42857,0 -0.69294,0 -8.47955,-0.0919 -8.57143,0 -0.67344,0.67343 0.42591,2.00531 0,2.85714 -0.60234,1.20468 -2.25481,1.65247 -2.85715,2.85715 -0.56641,1.13283 0.58411,7.98732 0,8.57142 -0.67343,0.67344 -2.1837,-0.67343 -2.85714,0 -1.50585,1.50585 -1.90476,3.80953 -2.85714,5.71429 0,0.95238 0.67343,2.18371 0,2.85714 -0.67344,0.67344 -2.18371,-0.67343 -2.85714,0 -5.91153,5.91153 9.0336,-0.23108 -2.85715,5.71429 -8.40802,4.20401 3.76167,-6.61881 -5.71428,2.85714 -0.85184,0.42592 -2.00531,-0.42592 -2.85715,0 -3.79558,1.8978 -1.91869,3.81649 -5.71428,5.71429 -0.85184,0.42591 -1.90476,0 -2.85714,0 -1.90477,0 -3.90727,-0.60234 -5.71429,0 -1.27775,0.42591 -1.57939,2.43122 -2.85714,2.85714 -3.03604,1.01201 -8.39254,-1.01201 -11.42857,0 -2.02031,0.67343 -3.64829,2.34064 -5.71429,2.85714 -1.84789,0.46198 -3.90727,-0.60234 -5.71429,0 -1.27775,0.42592 -1.65246,2.25481 -2.85714,2.85715 -1.525,0.7625 -4.18928,-0.7625 -5.71428,0 -6.3173,3.15865 -0.88664,1.77326 -2.85715,5.71428 -0.60234,1.20468 -2.43122,1.57939 -2.85714,2.85714 -0.60234,1.80702 0.85184,4.01062 0,5.71429 -1.20468,2.40935 -4.09804,3.55929 -5.71429,5.71429 -13.15457,17.53943 5.59126,-5.46823 -2.85714,11.42857 -0.42592,0.85183 -2.00531,-0.42592 -2.85714,0 -1.20468,0.60234 -1.65247,2.2548 -2.85714,2.85714 -0.85184,0.42592 -2.18371,-0.67344 -2.85715,0 -0.67343,0.67343 0.67344,2.18371 0,2.85714 -0.67343,0.67344 -2.43122,-0.85183 -2.85714,0 -8.04827,16.09654 25.09785,-9.34443 -14.28571,14.28572 z"
       id="path2999"
       inkscape:connector-curvature="0" />
    <path
       style="fill:#008000;stroke:#000000;stroke-width:1px;stroke-linecap:butt;stroke-linejoin:miter;stroke-opacity:1"
       d="m 542.85714,123.79075 c -1.62552,-13.43397 -16.37595,-12.22256 -22.85714,-20 -2.72666,-3.27199 -3.35172,-7.884718 -5.71429,-11.428567 -1.49421,-2.241328 -4.09804,-3.559294 -5.71428,-5.714286 -1.27775,-1.703671 -1.76148,-3.888179 -2.85714,-5.714286 -1.76671,-2.944509 -3.94758,-5.626919 -5.71429,-8.571428 -1.09566,-1.826107 -1.67586,-3.942361 -2.85714,-5.714286 -0.74711,-1.120664 -2.25481,-1.652466 -2.85715,-2.857143 -0.42591,-0.851835 0.67344,-2.183708 0,-2.857143 -0.67343,-0.673435 -2.1837,0.673435 -2.85714,0 -0.67343,-0.673435 0.67344,-2.183708 0,-2.857143 -1.34687,-1.34687 -4.01061,0.851836 -5.71428,0 -1.20468,-0.602338 -1.65247,-2.254804 -2.85715,-2.857143 -0.85183,-0.425917 -2.0053,0.425918 -2.85714,0 -1.20468,-0.602338 -1.65247,-2.254804 -2.85714,-2.857142 -1.77115,-0.885575 -12.53216,0.87678 -14.28572,0 -0.85183,-0.425918 0.67344,-2.183708 0,-2.857143 -0.22942,-0.229423 -12.03682,0 -14.28571,0 -0.76016,0 -8.33552,0.471822 -8.57143,0 -0.85184,-1.703671 0,-3.809524 0,-5.714286 0,-2.857143 0,-5.714286 0,-8.571429 0,-5.761111 0,-11.381746 0,-17.142857 0,-0.952381 -0.67344,-2.183707 0,-2.857143 0.67344,-0.673435 1.90476,0 2.85714,0 0.95238,-1.904761 1.90476,-3.809523 2.85715,-5.7142852 0.95238,-1.9047619 1.35129,-4.2084392 2.85714,-5.7142858 0.67343,-0.673435 1.90476,0 2.85714,0 0.95238,0 2.85714,-0.9523809 2.85714,0 0,0.952381 -3.80952,0 -2.85714,0 2.85714,0 5.79959,0.692959 8.57143,0 1.30666,-0.3266639 1.65247,-2.2548042 2.85714,-2.85714281 0.85184,-0.42591771 1.90476,0 2.85715,0 0.95238,0 1.90476,0 2.85714,0 6.82623,0 10.8751,-0.9035079 17.14286,2.85714281 2.30986,1.3859179 3.55929,4.0980417 5.71428,5.7142858 5.49417,4.1206302 11.42857,7.6190472 17.14286,11.4285712 2.85714,1.904762 5.26969,4.770932 8.57143,5.714286 3.66295,1.046557 7.67088,-0.626282 11.42857,0 10.34774,1.724623 2.03989,2.448517 8.57143,5.714286 0.80384,0.401923 17.81593,0 20,0 0.95238,0 2.0053,-0.425918 2.85714,0 1.20468,0.602338 1.65247,2.254804 2.85714,2.857142 1.54997,0.774983 10.6468,-0.781777 11.42857,0 0.76386,0.763851 -0.91123,12.463238 0,14.285715 0.60234,1.204677 2.43123,1.579389 2.85715,2.857143 0.56634,1.699022 0,13.76798 0,17.142857 0,3.809524 0,7.619047 0,11.428571 0,0.952381 0,1.904762 0,2.857143 0,0.952381 0.95238,2.857143 0,2.857143 -0.95238,0 0.67343,-3.530578 0,-2.857143 -11.15067,11.15067 0.66136,1.534424 -2.85715,8.571429 -0.60233,1.204677 -1.90476,1.904762 -2.85714,2.857142 -0.95238,0.952381 -1.65246,2.254805 -2.85714,2.857143 -0.85184,0.425918 -2.18371,-0.673435 -2.85714,0 -0.67344,0.673435 0.67343,2.183712 0,2.857142 -0.67344,0.67344 -2.18371,-0.67343 -2.85715,0 -0.67343,0.67344 0.67344,2.18371 0,2.85714 -0.67343,0.67344 -2.1837,-0.67343 -2.85714,0 -0.68406,0.68407 0.6495,11.42858 0,11.42858 -0.95238,0 0,-3.80953 0,-2.85715 0,2.85715 0,5.71429 0,8.57143 0,0.95238 0,1.90476 0,2.85714 0,0.95238 0.95238,2.85715 0,2.85715 -0.95238,0 0,-3.80953 0,-2.85715 0,1.90477 -0.85184,4.01062 0,5.71429 0.42592,0.85184 2.85714,-0.95238 2.85714,0 0,0.95238 -3.53058,-0.67344 -2.85714,0 3.28306,3.28306 5.05293,2.85714 8.57143,2.85714"
       id="path3001"
       inkscape:connector-curvature="0" />
  </g>
</svg>
